PathFileType	4	(X/Y/Z)	C:\Git\research_data\Projects\torsion_deformities_healthy_kinematics\simulations\TD01\pre\dynamic_12_l\marker_experimental.trc
DataRate	CameraRate	NumFrames	NumMarkers	Units	OrigDataRate	OrigDataStartFrame	OrigNumFrames
200	200	11	30	mm	200	305	609
Frame#	Time	C7			T10			CLAV			STRN			RBAK			LASI			RASI			SACR			RT1			RT2			RT3			RKNE			RS1			RS2			RS3			RANK			RHEE			RTOE			LT1			LT2			LT3			LKNE			LS1			LS2			LS3			LANK			LHEE			LTOE			RHJC			LHJC		
		X1	Y1	Z1	X2	Y2	Z2	X3	Y3	Z3	X4	Y4	Z4	X5	Y5	Z5	X6	Y6	Z6	X7	Y7	Z7	X8	Y8	Z8	X9	Y9	Z9	X10	Y10	Z10	X11	Y11	Z11	X12	Y12	Z12	X13	Y13	Z13	X14	Y14	Z14	X15	Y15	Z15	X16	Y16	Z16	X17	Y17	Z17	X18	Y18	Z18	X19	Y19	Z19	X20	Y20	Z20	X21	Y21	Z21	X22	Y22	Z22	X23	Y23	Z23	X24	Y24	Z24	X25	Y25	Z25	X26	Y26	Z26	X27	Y27	Z27	X28	Y28	Z28	X29	Y29	Z29	X30	Y30	Z30	

305	1.520000	606.491943	1227.528687	205.465515	569.866699	1040.656006	206.532639	734.540833	1183.833862	204.562759	778.510376	1050.429932	199.553787	577.726990	1153.857056	301.552704	707.888794	839.555481	95.602608	724.147644	840.408386	297.048706	555.108826	880.661926	214.299210	745.454468	653.581909	331.500031	728.592712	589.193481	334.641479	776.915649	597.550049	314.545624	795.903198	470.259369	296.995117	782.123596	330.569366	317.945251	782.191650	265.125214	303.134277	828.871033	284.057434	308.677917	860.998169	85.806694	274.813599	820.665161	69.315247	219.839874	999.521851	85.815361	255.275696	612.033936	652.544678	57.998692	571.024475	600.034180	64.312248	621.048889	589.003540	73.545670	548.419800	446.262848	86.889351	428.262848	356.284760	68.906166	382.181458	309.732788	78.946312	429.655273	291.101990	80.357460	281.260376	158.702118	109.829193	248.047348	180.815552	151.537064	380.217194	58.512047	158.447800	656.314189	783.094784	275.620519	644.408802	782.470252	128.113546	
306	1.525000	613.684692	1227.392822	206.237427	577.320862	1040.471191	207.067032	741.837891	1183.866455	205.411270	786.164124	1050.635864	200.631638	584.985168	1153.630127	302.320618	716.108032	839.185608	96.507973	731.806396	840.755066	297.646088	562.785461	880.384216	214.340485	753.459839	653.991089	331.491180	736.421814	589.427612	334.339508	784.865112	597.726562	314.686066	804.764954	470.901764	296.542908	790.555725	331.463379	318.148804	789.585571	265.918701	303.911743	836.413635	284.314240	307.838715	863.613403	85.481506	274.597107	821.872253	69.932022	220.321823	1002.334778	81.317329	252.947739	621.646729	651.574097	58.330597	581.165344	598.612244	64.225319	631.271362	588.041016	73.475708	559.338745	444.554230	85.807594	437.348938	356.720947	67.810173	390.396576	311.062378	77.952988	437.515289	291.446838	78.912888	287.095062	161.820633	108.577301	254.960220	185.319016	150.290680	380.738708	58.124367	158.574875	664.158787	783.328007	276.292496	652.661860	782.178591	128.986046	
307	1.530000	620.867004	1227.337036	207.001343	584.745300	1040.377563	207.588974	749.120117	1183.975220	206.243668	793.790405	1050.917358	201.688354	592.239441	1153.496582	303.084991	724.255371	838.882080	97.403961	739.401672	841.238098	298.223572	570.399658	880.192200	214.358215	761.281616	654.539612	331.572784	744.039368	589.823853	334.194641	792.594788	598.045471	314.980011	813.472046	471.644928	296.160217	798.894592	332.530182	318.529175	796.873596	266.914795	304.952240	843.812744	284.745392	307.144989	865.962158	85.328949	274.500580	822.930298	70.626434	220.886597	1004.839844	77.336044	250.958206	631.380981	650.589417	58.652809	591.514282	597.122986	64.128723	641.701111	587.067078	73.375076	570.616333	442.800537	84.711540	446.921448	357.061890	66.634048	399.130585	312.300171	76.884605	445.886047	291.728302	77.434509	293.599976	164.962372	107.234894	262.548370	189.903397	148.875961	381.352661	57.786957	158.717941	671.946267	783.685127	276.969433	660.851735	781.959365	129.870836	
308	1.535000	628.036926	1227.361816	207.755096	592.136169	1040.375854	208.097519	756.385132	1184.159302	207.057098	801.383057	1051.271729	202.718369	599.487854	1153.457520	303.843872	732.319702	838.646240	98.284363	746.926392	841.855286	298.783051	577.946411	880.085876	214.356308	768.938843	655.259888	331.744080	751.506104	590.421448	334.217926	800.152588	598.577271	315.403442	821.982422	472.467285	295.850586	807.058655	333.721893	319.057892	803.959717	268.067810	306.195679	850.986877	285.297943	306.592529	868.025574	85.319794	274.494873	823.845825	71.352562	221.492218	1007.015869	73.923637	249.315201	641.220764	649.598694	58.963062	602.051147	595.580811	64.023186	652.313416	586.090515	73.253624	582.234619	441.019501	83.617661	456.987915	357.290222	65.387466	408.396606	313.417419	75.745247	454.784302	291.932953	75.957825	300.783142	168.118973	105.807442	270.803375	194.551941	147.289627	382.112518	57.540577	158.861557	679.668393	784.162501	277.652177	668.967288	781.811501	130.763489	
309	1.540000	635.192688	1227.467285	208.496597	599.489807	1040.466431	208.591888	763.630615	1184.417603	207.848816	808.936279	1051.695068	203.716278	606.728027	1153.513062	304.595398	740.291443	838.479248	99.143448	754.374390	842.602356	299.327423	585.421692	880.064697	214.339081	776.454651	656.174072	331.998199	758.885376	591.246765	334.407135	807.591370	599.378601	315.919891	830.254700	473.342804	295.616028	814.958252	334.985687	319.697235	810.744629	269.325714	307.566620	857.852417	285.915375	306.175323	869.793579	85.422676	274.552551	824.624390	72.070198	222.101379	1008.854858	71.100441	248.011185	651.149231	648.613342	59.259850	612.752075	594.004944	63.909901	663.080322	585.124268	73.121506	594.173340	439.231110	82.542801	467.549377	357.391998	64.083275	418.199890	314.389313	74.542007	464.218842	292.050781	74.522499	308.634888	171.287628	104.306999	279.699829	199.248093	145.539673	383.088257	57.429993	158.985886	687.317666	784.754729	278.341778	676.998559	781.733572	131.659422	
310	1.545000	642.332458	1227.652832	209.223923	606.803284	1040.648560	209.071594	770.854309	1184.748413	208.616257	816.444458	1052.183716	204.677017	613.957825	1153.662842	305.337799	748.163147	838.382141	99.976074	761.740173	843.472412	299.860138	592.822449	880.127380	214.311050	783.853516	657.290344	332.322998	766.235229	592.309814	334.747467	814.961304	600.483887	316.483551	838.248779	474.242554	295.457489	822.500305	336.268036	320.403748	817.133057	270.634583	308.981628	864.328857	286.543121	305.887512	871.267395	85.605873	274.649109	825.272583	72.747231	222.683289	1010.362915	68.856598	247.023773	661.148743	647.647949	59.542370	623.589478	592.419617	63.790890	673.971436	584.185547	72.987816	606.410400	437.457336	81.503372	478.600037	357.358551	62.737083	428.537079	315.197815	73.284569	474.189484	292.076813	73.169868	317.127960	174.471313	102.752472	289.195709	203.975143	143.646790	384.366394	57.500664	159.067291	694.887175	785.454372	279.038667	684.937239	781.723963	132.553449	
311	1.550000	649.454468	1227.917603	209.935287	614.073730	1040.921021	209.536285	778.054138	1185.149780	209.357056	823.902466	1052.733398	205.595886	621.175049	1153.905884	306.069336	755.928894	838.355774	100.777786	769.019470	844.456116	300.385101	600.146606	880.272278	214.277023	791.158325	658.600769	332.702087	773.599854	593.602295	335.213531	822.302734	601.898987	317.043915	845.926514	475.136475	295.374908	829.594177	337.518555	321.132782	823.040894	271.942596	310.357819	870.344543	287.133148	305.723755	872.459045	85.839050	274.763580	825.799011	73.360619	223.214203	1011.558655	67.155983	246.318802	671.201355	646.720032	59.810493	634.533386	590.853333	63.669395	684.955078	583.295959	72.859428	618.922424	435.721832	80.514442	490.126953	357.187988	61.366547	439.395966	315.833862	71.984627	484.686554	292.012390	71.940109	326.219025	177.677963	101.169441	299.234222	208.715256	141.644882	386.048553	57.794479	159.079514	702.370938	786.252243	279.743031	692.776163	781.780980	133.440269	
312	1.555000	656.557190	1228.260010	210.629089	621.299011	1041.281860	209.985901	785.228210	1185.619263	210.069107	831.305603	1053.339355	206.468613	628.377563	1154.240234	306.788452	763.584961	838.401001	101.544914	776.208923	845.542053	300.906219	607.393188	880.497192	214.241882	798.387268	660.080505	333.116577	781.003296	595.097473	335.772827	829.639404	603.598022	317.552063	853.252808	475.995209	295.367493	836.157654	338.693085	321.842621	828.400940	273.203064	311.620850	875.840637	287.647003	305.678589	873.389709	86.094933	274.878845	826.214661	73.896294	223.677216	1012.470886	65.942108	245.855042	681.289062	645.849609	60.064632	645.552246	589.337646	63.549976	696.000061	582.480591	72.740234	631.684814	434.049255	79.588989	502.110138	356.886353	59.990566	450.755493	316.299316	70.655365	495.690826	291.866364	70.869095	335.851532	180.918671	99.589272	309.746674	213.448318	139.580643	388.248322	58.345123	158.994720	709.763928	787.137721	280.454167	700.510048	781.903038	134.314190	
313	1.560000	663.638977	1228.678101	211.303864	628.477295	1041.728638	210.420578	792.374695	1186.154053	210.750580	838.649841	1053.997314	207.291473	635.563171	1154.663696	307.493622	771.129456	838.518799	102.274673	783.306641	846.716736	301.427246	614.562012	880.799866	214.210510	805.551086	661.688904	333.547150	788.444336	596.751343	336.389587	836.974182	605.523193	317.967316	860.196960	476.791809	295.433441	842.122620	339.755920	322.497681	833.166138	274.376953	312.711182	880.774170	288.057068	305.745483	874.087158	86.350739	274.981293	826.532471	74.348267	224.061478	1013.135742	65.144951	245.588730	691.394226	645.058228	60.305702	656.614807	587.905579	63.438324	707.077637	581.767029	72.631004	644.672546	432.464966	78.737228	514.522766	356.468475	58.628456	462.586121	316.607971	69.311050	507.173615	291.655487	69.985619	345.959778	184.204971	98.047630	320.656525	218.150833	137.511917	391.086151	59.173824	158.784668	717.062310	788.098983	281.170624	708.135066	782.088974	135.169428	
314	1.565000	670.698547	1229.169678	211.958405	635.607239	1042.258301	210.840637	799.492065	1186.751221	211.399857	845.931641	1054.702393	208.061356	642.729919	1155.173462	308.183594	778.562439	838.710144	102.965202	790.311707	847.965271	301.951538	621.653870	881.177673	214.187683	812.650513	663.371704	333.976105	795.895081	598.505676	337.028473	844.287231	607.588989	318.263245	866.733948	477.502899	295.569946	847.440247	340.680847	323.070526	837.311340	275.434204	313.587372	885.119812	288.346405	305.915924	874.583191	86.588936	275.060883	826.766907	74.717232	224.361450	1013.593262	64.687798	245.476990	701.500366	644.368042	60.535061	667.691650	586.589417	63.340733	718.162720	581.183655	72.529770	657.859924	430.994415	77.966225	527.331604	355.957916	57.299221	474.850342	316.785645	67.966789	519.097473	291.404266	69.309242	356.473724	187.545883	96.582397	331.884583	222.795120	135.504547	394.683258	60.286362	158.422089	724.263332	789.123428	281.890018	715.649175	782.337889	136.000105	
315	1.570000	677.734558	1229.731934	212.591644	642.687988	1042.867065	211.246613	806.578796	1187.407471	212.015671	853.148376	1055.450073	208.775787	649.876038	1155.765991	308.857178	785.885620	838.975952	103.615677	797.224548	849.271545	302.481903	628.670349	881.628052	214.177902	819.674866	665.065491	334.389313	803.301941	600.292358	337.658020	851.536255	609.689575	318.431366	872.845947	478.109680	295.773010	852.083679	341.451660	323.542755	840.833069	276.354492	314.226379	888.870178	288.507660	306.179077	874.911316	86.797310	275.110840	826.933044	75.009071	224.576202	1013.884521	64.493355	245.479706	711.592346	643.800598	60.754471	678.757080	585.418945	63.263382	729.235596	580.757568	72.432808	671.220886	429.662689	77.279633	540.497437	355.386383	56.021046	487.503845	316.869354	66.638588	531.417542	291.143951	68.849106	367.324219	190.945007	95.231171	343.354340	227.349136	133.628082	399.154541	61.672115	157.882339	731.365450	790.198047	282.609206	723.051754	782.649324	136.800604	
